<svg id="图层_1" data-name="图层 1" xmlns="http://www.w3.org/2000/svg" viewBox="0 0 182.94 130.8"><defs><style>.cls-1{fill:#0071bd;}.cls-2{fill:#71787c;}.cls-3{fill:#fff;}</style></defs><title>未标题-1</title><path class="cls-1" d="M86.81,110.22c11.72-8.73,21.41-.21,22-.21h57.79c-1.29-1.25-3.58-5.4-4.49-7.77H33.84c-1.66,2.58-3.33,6.32-5.16,8Z" transform="translate(-7.06 -6.78)"/><path class="cls-1" d="M150.29,91.8H53.8c.21,1.46-1.08,7.77-1.29,7.86H160.77c-2.29-4.86-2.87-6.78-3.58-7.86h-2.58a11.58,11.58,0,0,1-1.91,3A7.67,7.67,0,0,1,150.29,91.8Z" transform="translate(-7.06 -6.78)"/><path class="cls-1" d="M99.16,33.84V32.64h-.62A91.91,91.91,0,0,0,7.06,124.4c0,2.2.08,4.41.25,6.57H8.44c-.08-2.16-.21-4.37-.21-6.57a90.64,90.64,0,0,1,90.3-90.55Z" transform="translate(-7.06 -6.78)"/><path class="cls-1" d="M132.62,82.07H126.1v1.37h-.37L125,82.07H74.92l-1.21,5H69.3s-.37,0-.37-.71a6,6,0,0,1,1.83-4.32H51.59a12.62,12.62,0,0,1,2,4.86c.17.91.37,2.45.37,2.45h81.91C133.91,87.1,132.62,84,132.62,82.07Z" transform="translate(-7.06 -6.78)"/><path class="cls-1" d="M123.06,36l-.25,1.08a91,91,0,0,1,66,87.27c0,2.2-.12,4.41-.29,6.57h1.21c.17-2.16.25-4.37.25-6.57A92.06,92.06,0,0,0,123.06,36Z" transform="translate(-7.06 -6.78)"/><path class="cls-1" d="M33.09,112.88v6.82H80.65a32.29,32.29,0,0,1,3.49-6.82Z" transform="translate(-7.06 -6.78)"/><path class="cls-1" d="M161.85,112.67H111.34a31.5,31.5,0,0,1,3.78,7h46.73Z" transform="translate(-7.06 -6.78)"/><path class="cls-1" d="M31.26,130.88c0,.21,48,0,48,0a71.82,71.82,0,0,1,.67-7.53H33.09C33.09,124.77,32.34,129.26,31.26,130.88Z" transform="translate(-7.06 -6.78)"/><path class="cls-1" d="M164.51,130.88c-1.75-2.29-2.45-6.86-2.45-7.61,0,0-46,.21-46,0,.17,1.66.91,6.53.54,7.61Z" transform="translate(-7.06 -6.78)"/><path class="cls-1" d="M121.44,68.68H84.73l.91,1.66V79.7h38.92A40.51,40.51,0,0,1,121.44,68.68Z" transform="translate(-7.06 -6.78)"/><path class="cls-1" d="M85.06,64.94H82.69c.75,1.54.17.17.91,1.7H120.9s-.67-.33-1.12-3V57.5l-2.12-.91V52.8H104.1v3.78l-2.29,1.29v3s-.75.21-1.83-1.7a17.44,17.44,0,0,1-1.29-3.7c-1,4.41-2,5.78-2,5.78-1.16,2.58-2.45,3.7-2.83,3.7H92.42s-.21-1.12,1.29-2.41L89.22,52.8h-.75L84,62.53A2.81,2.81,0,0,1,85.06,64.94Z" transform="translate(-7.06 -6.78)"/><polygon class="cls-1" points="103.73 6.15 95.21 26.32 112.71 26.32 103.73 6.15"/><path class="cls-1" d="M102.27,41.08c0,2.74,1.83,3.2,1.83,3.2l-.17,6.36h13.72V45.19c.21-1.91,2-.91,1.75-3.74h-1.75V35.13H104.1v5.95Z" transform="translate(-7.06 -6.78)"/><path class="cls-1" d="M59.57,69.06a38.8,38.8,0,0,1-6.11,11H68.85a49.49,49.49,0,0,1-6.32-11Z" transform="translate(-7.06 -6.78)"/><path class="cls-1" d="M139.11,89.39h9.35c-1.08-1.91-1.62-3.58-2.45-7.32h-4A23.5,23.5,0,0,1,139.11,89.39Z" transform="translate(-7.06 -6.78)"/><path class="cls-1" d="M40,91.8a30.58,30.58,0,0,1-3.28,7.86h9.06C44.27,98.29,43,94,42.28,91.8Z" transform="translate(-7.06 -6.78)"/><path class="cls-1" d="M126.31,80h6.32s-.54-4.86.91-5l-2.74-6.15h-2.66l-3,6.15C126.85,75.54,126.31,80,126.31,80Z" transform="translate(-7.06 -6.78)"/><polygon class="cls-1" points="71.51 63.36 68.39 73.26 74.34 73.26 71.51 63.36"/><polygon class="cls-1" points="82.16 42.2 82.16 39.7 76.92 40.99 82.16 42.2"/><polygon class="cls-1" points="137.12 61.91 137.12 59.62 131.88 60.62 137.12 61.91"/><polygon class="cls-1" points="122.9 53.3 122.9 50.72 117.74 52.01 122.9 53.3"/><polygon class="cls-1" points="148.84 76.67 148.84 74.17 143.81 75.46 148.84 76.67"/><polygon class="cls-1" points="34.47 78.33 34.47 75.83 29.44 77.04 34.47 78.33"/><polygon class="cls-1" points="104.11 2.41 104.11 0 99.08 1.29 104.11 2.41"/><polygon class="cls-1" points="54.34 54.47 54.34 52.18 49.31 53.47 54.34 54.47"/><polygon class="cls-1" points="138.41 73.26 136.91 65.19 135.46 73.26 138.41 73.26"/><path class="cls-2" d="M153.7,134.54a1.29,1.29,0,0,0-.91.37,1.31,1.31,0,0,0,0,1.83,1.31,1.31,0,0,0,1.83,0,1.31,1.31,0,0,0,0-1.83A1.29,1.29,0,0,0,153.7,134.54Z" transform="translate(-7.06 -6.78)"/><polygon class="cls-1" points="122.36 55.75 121.07 60.62 123.52 60.78 122.36 55.75"/><path class="cls-3" d="M153.7,134.83a1,1,0,0,1,.75.29,1,1,0,0,1,.25.71,1.08,1.08,0,0,1-.25.75,1.11,1.11,0,0,1-1.5,0,1.08,1.08,0,0,1-.25-.75,1,1,0,0,1,.25-.71A1,1,0,0,1,153.7,134.83Z" transform="translate(-7.06 -6.78)"/><polygon class="cls-1" points="148.84 79.25 147.72 82.61 149.59 82.61 148.84 79.25"/><path class="cls-2" d="M156.07,137h.75a.89.89,0,0,0,.83-.37,1.08,1.08,0,0,0,.25-.75,1.32,1.32,0,0,0-.25-.83.81.81,0,0,0-.75-.33h-.83Z" transform="translate(-7.06 -6.78)"/><polygon class="cls-1" points="34.84 82.61 33.93 80.53 33.18 82.61 34.84 82.61"/><polygon class="cls-1" points="54.01 57.79 53.09 59.87 54.71 59.87 54.01 57.79"/><path class="cls-2" d="M163.6,136.41a.36.36,0,0,1-.37.25.31.31,0,0,1-.25-.08.29.29,0,0,1-.08-.17v-.29H164a1.24,1.24,0,0,0-.17-.62.59.59,0,0,0-.58-.29.53.53,0,0,0-.54.29.9.9,0,0,0,0,1.25.66.66,0,0,0,.54.21c.21,0,.37,0,.46-.08s.21-.29.29-.37Z" transform="translate(-7.06 -6.78)"/><path class="cls-2" d="M165.51,135.29h-.25l-.37,1.12-.46-1.12h-.37l.54,1.58.12.08-.12.08c0,.08,0,.08-.08.17h-.37v.29a.45.45,0,0,0,.29.08c.08,0,.17-.08.29-.17s.08-.08.17-.29Z" transform="translate(-7.06 -6.78)"/><path class="cls-2" d="M158.94,136.58a1.81,1.81,0,0,1,.25.29.82.82,0,0,0,.46.08,1.42,1.42,0,0,0,.58-.08.87.87,0,0,0,.17-.46c0-.29-.17-.37-.46-.46l-.37-.12a.18.18,0,0,1-.17-.17c0-.08.08-.17.25-.17s.29.08.29.17h.37a.61.61,0,0,0-.67-.46.87.87,0,0,0-.46.17.62.62,0,0,0-.17.37c0,.29.17.46.54.54h.29s.08,0,.08.12a.08.08,0,0,1,.08.08c0,.17-.08.17-.37.17s-.25,0-.33-.17Z" transform="translate(-7.06 -6.78)"/><path class="cls-2" d="M162.14,137v-1.12a.67.67,0,0,0-.21-.46.63.63,0,0,0-.33-.17c-.29,0-.46.17-.58.46v-.37h-.33V137H161v-.83a.78.78,0,0,1,.21-.46c0-.08.08-.08.17-.08s.21,0,.21.08.08.08.08.29v1Z" transform="translate(-7.06 -6.78)"/><path class="cls-2" d="M154.33,136.12h-.25a.29.29,0,0,1-.08.17h-.46c-.12,0-.12-.08-.21-.08s-.08-.08-.08-.17v-.46a.32.32,0,0,0,.08-.21.51.51,0,0,0,.21-.08H154a.91.91,0,0,1,.17.21h.17c0-.21-.08-.29-.17-.29s-.29-.21-.46-.21-.17.12-.29.12-.08.08-.17.17a.19.19,0,0,0-.17.21c0,.08-.12.17-.12.25a.35.35,0,0,0,.12.29c0,.08.08.17.08.25s.17.21.25.21.21.08.29.08a2.65,2.65,0,0,0,.37-.08A.4.4,0,0,0,154.33,136.12Z" transform="translate(-7.06 -6.78)"/><path class="cls-3" d="M156.53,136.58V135h.37a.68.68,0,0,1,.46.21,1.45,1.45,0,0,1,.21.54,1.25,1.25,0,0,1-.21.67.7.7,0,0,1-.54.17Z" transform="translate(-7.06 -6.78)"/><polygon class="cls-1" points="81.41 44.78 82.16 44.78 81.78 43.66 81.41 44.78"/><path class="cls-3" d="M163.6,136h-.71c0-.21,0-.29.08-.37s.17-.08.25-.08.21.08.29.08S163.6,135.75,163.6,136Z" transform="translate(-7.06 -6.78)"/><rect class="cls-2" x="151.21" y="128.51" width="0.37" height="1.66"/><rect class="cls-2" x="151.21" y="127.89" width="0.37" height="0.46"/></svg>